<svg version="1.1" xmlns="http://www.w3.org/2000/svg" viewBox="0 0 449.4100847867121 335.31937444823006" width="449.4100847867121" height="335.31937444823006"><!-- svg-source:excalidraw --><metadata></metadata><defs><style class="style-fonts">
      </style></defs><g stroke-linecap="round" transform="translate(10 184.122219788871) rotate(0 70.59857732967976 70.59857732967953)"><path d="M0 0 L141.2 0 L141.2 141.2 L0 141.2" stroke="none" stroke-width="0" fill="#ffffff"></path><path d="M0 0 C45.61 0, 91.21 0, 141.2 0 M0 0 C54.22 0, 108.44 0, 141.2 0 M141.2 0 C141.2 32.81, 141.2 65.62, 141.2 141.2 M141.2 0 C141.2 30.54, 141.2 61.09, 141.2 141.2 M141.2 141.2 C98.9 141.2, 56.61 141.2, 0 141.2 M141.2 141.2 C90.61 141.2, 40.03 141.2, 0 141.2 M0 141.2 C0 92.73, 0 44.26, 0 0 M0 141.2 C0 94.93, 0 48.66, 0 0" stroke="#1e1e1e" stroke-width="4" fill="none"></path></g><g stroke-linecap="round" transform="translate(298.2129301273526 10) rotate(0 70.59857732967976 70.59857732967953)"><path d="M0 0 L141.2 0 L141.2 141.2 L0 141.2" stroke="none" stroke-width="0" fill="#1e1e1e"></path><path d="M0 0 C33.7 0, 67.39 0, 141.2 0 M0 0 C49.11 0, 98.23 0, 141.2 0 M141.2 0 C141.2 31.27, 141.2 62.55, 141.2 141.2 M141.2 0 C141.2 42.44, 141.2 84.88, 141.2 141.2 M141.2 141.2 C103.62 141.2, 66.04 141.2, 0 141.2 M141.2 141.2 C97.92 141.2, 54.63 141.2, 0 141.2 M0 141.2 C0 94.09, 0 46.98, 0 0 M0 141.2 C0 103.58, 0 65.97, 0 0" stroke="#ffffff" stroke-width="4" fill="none"></path></g><g stroke-linecap="round"><g transform="translate(156.1971546593595 254.72079711855076) rotate(0 68.50788773399654 -87.0611098944355)"><path d="M0 0 C14.91 1.07, 28.22 0.69, 52.51 0 M0 0 C20.46 -0.52, 39.3 -0.83, 52.51 0 M52.51 0 C64.5 1.33, 66.89 -4.8, 68.51 -16 M52.51 0 C63.34 1.85, 68.52 -3.15, 68.51 -16 M68.51 -16 C65.86 -60.33, 66.73 -104.04, 68.51 -158.12 M68.51 -16 C69 -49.21, 69.33 -81.97, 68.51 -158.12 M68.51 -158.12 C68.62 -170.73, 73.13 -173.1, 84.51 -174.12 M68.51 -158.12 C67.66 -168.02, 74.25 -171.86, 84.51 -174.12 M84.51 -174.12 C95.75 -174.47, 108.52 -172.32, 137.02 -174.12 M84.51 -174.12 C104.37 -174.06, 124.9 -174.64, 137.02 -174.12" stroke="#228be6" stroke-width="4" fill="none"></path></g><g transform="translate(156.1971546593595 254.72079711855076) rotate(0 68.50788773399654 -87.0611098944355)"><path d="M113.38 -165.97 C120.2 -167.04, 125.42 -169.7, 137.02 -174.12 M113.38 -165.97 C122.85 -169.55, 130.79 -172.93, 137.02 -174.12" stroke="#228be6" stroke-width="4" fill="none"></path></g><g transform="translate(156.1971546593595 254.72079711855076) rotate(0 68.50788773399654 -87.0611098944355)"><path d="M113.67 -183.07 C120.4 -179.35, 125.54 -177.21, 137.02 -174.12 M113.67 -183.07 C123.2 -180.19, 131.03 -177.11, 137.02 -174.12" stroke="#228be6" stroke-width="4" fill="none"></path></g></g><mask></mask></svg>