<svg version="1.1" xmlns="http://www.w3.org/2000/svg" viewBox="0 0 355.7725721033403 266.4289942685523" width="355.7725721033403" height="266.4289942685523"><!-- svg-source:excalidraw --><metadata></metadata><defs><style class="style-fonts">
      </style></defs><g stroke-linecap="round" transform="translate(10 115.23183960919323) rotate(0 70.59857732967976 70.59857732967953)"><path d="M0 0 L141.2 0 L141.2 141.2 L0 141.2" stroke="none" stroke-width="0" fill="#e9ecef"></path><path d="M0 0 C45.61 0, 91.21 0, 141.2 0 M0 0 C54.22 0, 108.44 0, 141.2 0 M141.2 0 C141.2 32.81, 141.2 65.62, 141.2 141.2 M141.2 0 C141.2 30.54, 141.2 61.09, 141.2 141.2 M141.2 141.2 C98.9 141.2, 56.61 141.2, 0 141.2 M141.2 141.2 C90.61 141.2, 40.03 141.2, 0 141.2 M0 141.2 C0 92.73, 0 44.26, 0 0 M0 141.2 C0 94.93, 0 48.66, 0 0" stroke="#1e1e1e" stroke-width="4" fill="none"></path></g><g stroke-linecap="round" transform="translate(204.57541744398077 10) rotate(0 70.59857732967976 70.59857732967953)"><path d="M0 0 L141.2 0 L141.2 141.2 L0 141.2" stroke="none" stroke-width="0" fill="#1e1e1e"></path><path d="M0 0 C33.7 0, 67.39 0, 141.2 0 M0 0 C49.11 0, 98.23 0, 141.2 0 M141.2 0 C141.2 31.27, 141.2 62.55, 141.2 141.2 M141.2 0 C141.2 42.44, 141.2 84.88, 141.2 141.2 M141.2 141.2 C103.62 141.2, 66.04 141.2, 0 141.2 M141.2 141.2 C97.92 141.2, 54.63 141.2, 0 141.2 M0 141.2 C0 94.09, 0 46.98, 0 0 M0 141.2 C0 103.58, 0 65.97, 0 0" stroke="#1e1e1e" stroke-width="4" fill="none"></path></g><g stroke-linecap="round"><g transform="translate(156.1971546593595 185.830416938873) rotate(0 21.689131392310628 -52.615919804596615)"><path d="M0 0 C3.14 0.67, 5.42 0.46, 10.84 0 M0 0 C4.43 -0.27, 8 -0.43, 10.84 0 M10.84 0 C19.4 1.33, 20.07 -3.08, 21.69 -10.84 M10.84 0 C18.24 1.85, 21.7 -1.43, 21.69 -10.84 M21.69 -10.84 C19.5 -37.21, 20.37 -62.97, 21.69 -94.39 M21.69 -10.84 C21.86 -30.5, 22.2 -49.7, 21.69 -94.39 M21.69 -94.39 C21.8 -103.56, 24.59 -104.21, 32.53 -105.23 M21.69 -94.39 C20.84 -100.84, 25.71 -102.97, 32.53 -105.23 M32.53 -105.23 C34.57 -105.53, 37.44 -104.36, 43.38 -105.23 M32.53 -105.23 C36.46 -105.31, 40.75 -105.62, 43.38 -105.23" stroke="#1e1e1e" stroke-width="4" fill="none"></path></g><g transform="translate(156.1971546593595 185.830416938873) rotate(0 21.689131392310628 -52.615919804596615)"><path d="M32.96 -102.22 C35.99 -102.39, 38.14 -103.44, 43.38 -105.23 M32.96 -102.22 C37.2 -103.62, 40.6 -104.93, 43.38 -105.23" stroke="#1e1e1e" stroke-width="4" fill="none"></path></g><g transform="translate(156.1971546593595 185.830416938873) rotate(0 21.689131392310628 -52.615919804596615)"><path d="M33.46 -109.62 C36.34 -107.72, 38.36 -106.69, 43.38 -105.23 M33.46 -109.62 C37.59 -108.23, 40.8 -106.74, 43.38 -105.23" stroke="#1e1e1e" stroke-width="4" fill="none"></path></g></g><mask></mask></svg>